<?xml version="1.0" encoding="UTF-8"?>
<svg id="Layer_1" data-name="Layer 1" xmlns="http://www.w3.org/2000/svg" version="1.1" viewBox="0 0 40 40">
  <defs>
    <style>
      .cls-1 {
        fill: #2ef2ff;
        stroke-width: 0px;
      }
    </style>
  </defs>
  <path class="cls-1" d="M15.9,22.2v17h-3.3v-16c1-.4,2.1-.8,3.3-1Z"/>
  <path class="cls-1" d="M10.7,24.2v15h-3.3v-11.6c.7-1.2,1.8-2.4,3.3-3.3Z"/>
  <rect class="cls-1" x="4.2" y="35.9" width="11.7" height="3.3"/>
  <path class="cls-1" d="M12.6,6.3H4.2v3.3h3.2v11.6c.9-.7,2-1.4,3.3-2v-9.6h1.9v8.9c1-.3,2.1-.6,3.3-.7V6.3h-3.3,0Z"/>
  <path class="cls-1" d="M27.4.7v16.1c-1,.5-2,.8-3.3,1.1V.7h3.3Z"/>
  <path class="cls-1" d="M32.7.7v11.2c-.7,1.3-1.8,2.6-3.3,3.7V.7h3.3Z"/>
  <path class="cls-1" d="M32.7,30.3v-11.7l-3.3,2.1v9.6h-1.9v-8.8c-1,.3-2.1.6-3.3.8v11.3h11.7v-3.3h-3.2Z"/>
  <rect class="cls-1" x="24.1" y=".7" width="11.7" height="3.3"/>
  <path class="cls-1" d="M10.7,20l-3.3,2.1c.9-.8,2-1.5,3.3-2.1Z"/>
  <path class="cls-1" d="M34.3,7.1c0,.2-.2,2.4-1.6,4.8-.7,1.3-1.8,2.6-3.3,3.7-.6.4-1.2.8-1.9,1.2-1,.5-2,.8-3.3,1.1-1.2.2-2.5.4-3.9.4h-.6c-1.3,0-2.6,0-3.7.3-.2,0-.4,0-.6,0-.2,0-.3,0-.5,0-.2,0-.4,0-.6.1-.1,0-.2,0-.3,0,0,0,0,0-.1,0-.1,0-.2,0-.4,0-.3,0-.5.2-.8.2-.7.2-1.3.5-1.9.8l-3.3,2.1c-4.8,4-5.4,9.6-5.4,9.7l3.6.3c0-.2.3-2.3,1.7-4.6.7-1.2,1.8-2.4,3.3-3.3.6-.4,1.2-.7,1.9-1,1-.4,2.1-.8,3.3-1,1.2-.2,2.5-.3,4-.3h.3c1.4,0,2.7-.1,3.9-.3.1,0,.3,0,.4,0,0,0,.1,0,.2,0,.2,0,.5,0,.7-.1,0,0,0,0,0,0,.1,0,.3,0,.4-.1.3,0,.5-.1.8-.2.1,0,.3,0,.4-.1.1,0,.3,0,.4-.1.7-.2,1.3-.5,1.9-.8,1.3-.7,2.4-1.4,3.3-2.3h0s0,0,0,0c4.6-4.2,5.2-10.1,5.2-10.2l-3.6-.3h0Z"/>
</svg>