<?xml version="1.0" encoding="UTF-8"?>
<svg id="Layer_1" data-name="Layer 1" xmlns="http://www.w3.org/2000/svg" version="1.1" viewBox="0 0 162 56">
  <defs>
    <style>
      .cls-1 {
        fill: #3c52d9;
      }

      .cls-1, .cls-2 {
        stroke-width: 0px;
      }

      .cls-2 {
        fill: #fff;
      }
    </style>
  </defs>
  <path class="cls-2" d="M75.6,31v22.4h-4.3v-21.2c1.3-.5,2.7-1,4.3-1.3Z"/>
  <path class="cls-2" d="M68.7,33.6v19.8h-4.3v-15.4c1-1.5,2.4-3.1,4.3-4.4Z"/>
  <rect class="cls-2" x="65.8" y="43.5" width="4.3" height="15.4" transform="translate(16.7 119.2) rotate(-90)"/>
  <path class="cls-2" d="M71.3,10h-11.1v4.3h4.2v15.2c1.2-1,2.7-1.9,4.3-2.6v-12.7h2.6v11.7c1.3-.4,2.8-.7,4.3-1v-15.1h-4.3Z"/>
  <path class="cls-2" d="M90.9,2.6v21.2c-1.3.6-2.7,1.1-4.3,1.4V2.6h4.3Z"/>
  <path class="cls-2" d="M97.8,2.6v14.7c-1,1.7-2.3,3.5-4.3,4.9V2.6h4.3Z"/>
  <path class="cls-2" d="M97.8,41.6v-15.5l-4.3,2.8v12.6h-2.6v-11.6c-1.3.5-2.8.8-4.3,1.1v14.8h0s15.4,0,15.4,0v-4.3h-4.2Z"/>
  <rect class="cls-2" x="92.1" y="-3" width="4.3" height="15.4" transform="translate(89.5 99) rotate(-90)"/>
  <path class="cls-2" d="M68.7,28.1l-4.3,2.8c1.2-1,2.7-2,4.3-2.8Z"/>
  <path class="cls-1" d="M99.9,11c0,.3-.3,3.1-2.1,6.3-1,1.7-2.3,3.5-4.3,4.9-.8.6-1.6,1.1-2.6,1.5-1.3.6-2.7,1.1-4.3,1.4-1.5.3-3.3.5-5.2.5h-.8c-1.8,0-3.4.1-4.9.3-.3,0-.5,0-.8.1-.2,0-.4,0-.6.1-.3,0-.6.1-.8.2-.1,0-.3,0-.4.1,0,0-.1,0-.1,0-.2,0-.3,0-.5.1-.4,0-.7.2-1.1.3-.9.3-1.8.6-2.6,1l-4.3,2.8c-6.3,5.3-7.1,12.7-7.1,12.8l4.8.4c0-.3.3-3.1,2.3-6.1,1-1.5,2.4-3.1,4.3-4.4.8-.5,1.6-1,2.6-1.4,1.3-.5,2.7-1,4.3-1.3,1.6-.3,3.3-.4,5.3-.4h.4c1.9,0,3.6-.1,5.2-.4.2,0,.3,0,.5,0,0,0,.2,0,.2,0,.3,0,.6-.1.9-.2,0,0,0,0,0,0,.2,0,.4,0,.5-.1.4,0,.7-.2,1.1-.3.2,0,.3-.1.5-.2.2,0,.3-.1.5-.2.9-.3,1.8-.7,2.6-1.1,1.7-.9,3.1-1.9,4.3-3h0s0,0,0,0c6.1-5.6,6.9-13.3,6.9-13.4l-4.8-.4Z"/>
</svg>