<?xml version="1.0" encoding="UTF-8"?>
<svg id="Layer_1" data-name="Layer 1" xmlns="http://www.w3.org/2000/svg" version="1.1" viewBox="0 0 43 42">
  <defs>
    <style>
      .cls-1 {
        fill: #2ef2ff;
        fill-rule: evenodd;
        isolation: isolate;
        opacity: 0;
      }

      .cls-1, .cls-2 {
        stroke-width: 0px;
      }

      .cls-2 {
        fill: #fff;
      }
    </style>
  </defs>
  <path class="cls-1" d="M31.5,2H11.5c-2.1,0-4.1.7-5.6,2l9.3,9.3c1.7-1.4,3.9-2.3,6.3-2.3s4.6.8,6.3,2.3l9.3-9.3c-1.5-1.2-3.5-2-5.6-2ZM26.4,14.7c-1.4-1.1-3.1-1.7-4.9-1.7s-3.6.6-4.9,1.7l4.9,4.9,4.9-4.9ZM13.8,14.7L4.5,5.4c-1.2,1.5-2,3.5-2,5.6v20c0,2.1.7,4.1,2,5.6l9.3-9.3c-1.4-1.7-2.3-3.9-2.3-6.3s.8-4.6,2.3-6.3ZM15.2,25.9c-1.1-1.4-1.7-3.1-1.7-4.9s.6-3.6,1.7-4.9l4.9,4.9-4.9,4.9ZM15.2,28.7l-9.3,9.3c1.5,1.2,3.5,2,5.6,2h20c2.1,0,4.1-.7,5.6-2l-9.3-9.3c-1.7,1.4-3.9,2.3-6.3,2.3s-4.6-.8-6.3-2.3ZM26.4,27.3c-1.4,1.1-3.1,1.7-4.9,1.7s-3.6-.6-4.9-1.7l4.9-4.9,4.9,4.9ZM27.8,25.9l-4.9-4.9,4.9-4.9c1.1,1.4,1.7,3.1,1.7,4.9s-.6,3.6-1.7,4.9ZM29.2,27.3c1.4-1.7,2.3-3.9,2.3-6.3s-.8-4.6-2.3-6.3l9.3-9.3c1.2,1.5,2,3.5,2,5.6v20c0,2.1-.7,4.1-2,5.6l-9.3-9.3ZM11.5,0C5.4,0,.5,4.9.5,11v20c0,6.1,4.9,11,11,11h20c6.1,0,11-4.9,11-11V11C42.5,4.9,37.6,0,31.5,0H11.5Z"/>
  <g>
    <path class="cls-2" d="M15.3,10.2c-.2.1-.3.2-.4.4v.2c-.1,0-.1.8-.1.8,0,.8,0,.8.1,1,.3.6,1.1.7,1.6.2.3-.3.3-.5.3-1.4,0-.7,0-.7-.2-.9-.2-.3-.5-.5-.8-.5-.2,0-.3,0-.6.1Z"/>
    <path class="cls-2" d="M26.9,10.1c-.2,0-.6.4-.6.7,0,.1,0,.5,0,.9,0,.7,0,.7.2.9.2.3.5.5.8.5.4,0,.8-.2,1-.5v-.2c.1,0,.1-.8.1-.8,0-.8,0-.8-.1-1-.2-.4-.8-.6-1.2-.5Z"/>
    <path class="cls-2" d="M12.6,11.7c-.6.2-1,.6-1.3,1.1l-.2.3v1.8s0,1.8,0,1.8h20.8v-1.8c0-1.4,0-1.8,0-2-.1-.4-.4-.8-.7-1-.4-.3-.7-.4-1.3-.4h-.5s0,.5,0,.5c0,.6-.1.9-.4,1.3-.2.3-.7.6-1.1.7-.4.1-1,0-1.4-.1-.5-.2-.8-.5-1-1-.2-.3-.2-.4-.2-.9v-.5h-7.3v.5c0,.5,0,.6-.2.9-.2.5-.5.8-1,1-.3.2-.4.2-.8.2-.3,0-.5,0-.7,0-.6-.2-1.1-.7-1.4-1.3,0-.2-.1-.4-.1-.8v-.5s-.4,0-.4,0c-.2,0-.5,0-.7,0Z"/>
    <path class="cls-2" d="M11.1,24.1v6.3s.2.3.2.3c.2.4.5.7.8.9.5.3,0,.3,9.4.3s8.9,0,9.4-.3c.3-.2.7-.5.8-.9l.2-.3v-6.3s0-6.3,0-6.3H11.1v6.3ZM16.6,20.5c.2,0,.3.1.5.3.3.3.4.5.3,1.4,0,.6,0,.7-.1.9,0,.1-.2.3-.3.4h-.2c0,.1-.9.1-.9.1h-1.1c-.1-.2-.2-.3-.3-.4-.1-.2-.1-.2-.1-1,0-.5,0-.9,0-1,0-.3.4-.6.7-.7.2,0,1.3,0,1.6,0ZM22.6,20.6c.2.1.3.2.4.4.1.3.1.3.1,1s0,1-.3,1.3c-.3.2-.4.3-1.3.3s-1,0-1.3-.3c-.2-.3-.3-.4-.3-1.2s0-.7.1-1,.4-.5.7-.5c0,0,.5,0,.9,0,.7,0,.7,0,.9.2ZM28.2,20.6c.2.1.4.4.5.6,0,.1,0,.5,0,1,0,.7,0,.8-.1,1,0,.1-.2.2-.3.3-.2.1-.2.1-1,.1-.9,0-1.1,0-1.3-.2-.3-.2-.4-.5-.4-1.2,0-.9,0-1.1.4-1.4.1-.1.3-.2.4-.2,0,0,.5,0,.9,0,.6,0,.7,0,.9.1ZM16.7,26.3c.2,0,.4.2.5.5,0,.2.1.3.1.8,0,.9,0,1.1-.3,1.4-.3.3-.5.4-1.4.3-.7,0-.9,0-1.2-.4-.2-.2-.2-.4-.2-1.3q0-.8.2-1c0-.1.2-.3.4-.3.2-.1.3-.1,1-.1s.8,0,1,0ZM22.5,26.3c0,0,.2.2.3.2.2.3.3.4.3,1.2s0,.7-.1,1c0,.2-.2.3-.4.4h-.2c0,.1-.8.1-.8.1h-1.1c-.2-.3-.3-.4-.4-.6-.1-.3-.1-.3-.1-1s0-1,.3-1.3c.3-.3.4-.3,1.2-.3.7,0,.8,0,1,0ZM28.3,26.4c.1,0,.2.2.3.3.1.2.1.2.1,1.1v1.1c-.2.1-.4.3-.5.3-.2.1-.3.1-.9.1-.9,0-1.1,0-1.4-.3-.3-.3-.4-.5-.3-1.4,0-.7,0-.9.3-1.1.2-.2.4-.3,1.3-.2.8,0,.8,0,1,.1Z"/>
  </g>
</svg>